{"title":"Gattu 2012 DVDRip XviD 1CDRip (K@rtik) - HINDI - CFSI","uid":7926897,"size":734431018,"categoryP":"video","categoryS":"movies","magnet":"?xt=urn:btih:d8b03e2b603d4174ae8ee247b4db5685492f4e16&amp;dn=Gattu+2012+DVDRip+XviD+1CDRip+%28K%40rtik%29+-+HINDI+-+CFSI&amp;tr=udp%3A%2F%2Ftracker.openbittorrent.com%3A80&amp;tr=udp%3A%2F%2Fopen.demonii.com%3A1337&amp;tr=udp%3A%2F%2Ftracker.coppersurfer.tk%3A6969&amp;tr=udp%3A%2F%2Fexodus.desync.com%3A6969","seeders":0,"leechers":1,"uploader":"SJonam","files":2,"time":1355599007,"description":" &lt;a href=&quot;http://desibbrg.org/images/27307659341666885391.jpg&quot; rel=&quot;nofollow&quot; target=&quot;_NEW&quot;&gt;http://desibbrg.org/images/27307659341666885391.jpg&lt;/a&gt; &lt;a href=&quot;\nhttp://desibbrg.org/images/79359974650345374611.jpg&quot; rel=&quot;nofollow&quot; target=&quot;_NEW&quot;&gt;\nhttp://desibbrg.org/images/79359974650345374611.jpg&lt;/a&gt; &lt;a href=&quot;\nhttp://desibbrg.org/images/50354137518890602774.jpg&quot; rel=&quot;nofollow&quot; target=&quot;_NEW&quot;&gt;\nhttp://desibbrg.org/images/50354137518890602774.jpg&lt;/a&gt; &lt;a href=&quot;\nhttp://desibbrg.org/images/57832682966271125567.jpg&quot; rel=&quot;nofollow&quot; target=&quot;_NEW&quot;&gt;\nhttp://desibbrg.org/images/57832682966271125567.jpg&lt;/a&gt;\n\nMedia Info - \nFormat : AVI\nFormat/Info : Audio Video Interleave\nFile size : 700 MiB\nDuration : 1h 17mn\nOverall bit rate : 1 261 Kbps\n\nFormat : MPEG-4 Visual\nFormat profile : Advanced Simple@L5\nFormat settings, BVOP : 3\nFormat settings, QPel : No\nFormat settings, GMC : No warppoints\nFormat settings, Matrix : Default (MPEG)\nCodec ID : XVID\nCodec ID/Hint : XviD\nDuration : 1h 17mn\nBit rate : 1 125 Kbps\nWidth : 688 pixels\nHeight : 288 pixels\nDisplay aspect ratio : 2.40:1\nFrame rate : 23.976 fps\nColor space : YUV\nChroma subsampling : 4:2:0\nBit depth : 8 bits\nScan type : Progressive\nCompression mode : Lossy\nBits/(Pixel*Frame) : 0.237\nStream size : 625 MiB (89%)\nWriting library : XviD 1.2.1 (UTC 2008-12-04)\n\nFormat : AC-3\nFormat/Info : Audio Coding 3\nMode extension : CM (complete main)\nFormat settings, Endianness : Big\nCodec ID : 2000\nDuration : 1h 17mn\nBit rate mode : Constant\nBit rate : 128 Kbps\nChannel(s) : 6 channels\nChannel positions : Front: L C R, Side: L R, LFE\nSampling rate : 48.0 KHz\nBit depth : 16 bits\nCompression mode : Lossy\nStream size : 71.1 MiB (10%)\nAlignment : Aligned on interleaves\nInterleave, duration : 64 ms (1.53 video frames)\nInterleave, preload duration : 192 ms\nTitle : VTS_13_1 T80 3_2ch 448Kbps DELAY 0ms_new\n\nRipper : K@rtik\n\nSeeding 24x7... Extreme Seeding...\n\n\nEnjoy!\n","torrent":{"xt":"urn:btih:d8b03e2b603d4174ae8ee247b4db5685492f4e16","amp;dn":"Gattu+2012+DVDRip+XviD+1CDRip+%28K%40rtik%29+-+HINDI+-+CFSI","amp;tr":["udp%3A%2F%2Ftracker.openbittorrent.com%3A80","udp%3A%2F%2Fopen.demonii.com%3A1337","udp%3A%2F%2Ftracker.coppersurfer.tk%3A6969","udp%3A%2F%2Fexodus.desync.com%3A6969"],"infoHash":"d8b03e2b603d4174ae8ee247b4db5685492f4e16","infoHashBuffer":{"type":"Buffer","data":[216,176,62,43,96,61,65,116,174,142,226,71,180,219,86,133,73,47,78,22]},"announce":[],"urlList":[]}}